HIERARCHY
ROOT ui
{
	 OFFSET 0 0 0
	 CHANNELS 3 XPosition YPosition Z Position
	 EndSite
	 {
	 OFFSET 0 -1 0
	 }
}
ROOT li
{
	 OFFSET 0 0 0
	 CHANNELS 3 XPosition YPosition Z Position
	 EndSite
	 {
	 OFFSET 0 -1 0
	 }
}
ROOT ul
{
	 OFFSET 0 0 0
	 CHANNELS 3 XPosition YPosition Z Position
	 EndSite
	 {
	 OFFSET 0 -1 0
	 }
}
ROOT ll
{
	 OFFSET 0 0 0
	 CHANNELS 3 XPosition YPosition Z Position
	 EndSite
	 {
	 OFFSET 0 -1 0
	 }
}
ROOT tt
{
	 OFFSET 0 0 0
	 CHANNELS 3 XPosition YPosition Z Position
	 EndSite
	 {
	 OFFSET 0 -1 0
	 }
}
ROOT tb
{
	 OFFSET 0 0 0
	 CHANNELS 3 XPosition YPosition Z Position
	 EndSite
	 {
	 OFFSET 0 -1 0
	 }
}
ROOT td
{
	 OFFSET 0 0 0
	 CHANNELS 3 XPosition YPosition Z Position
	 EndSite
	 {
	 OFFSET 0 -1 0
	 }
}
ROOT v
{
	 OFFSET 0 0 0
	 CHANNELS 3 XPosition YPosition Z Position
	 EndSite
	 {
	 OFFSET 0 -1 0
	 }
}
ROOT bn
{
	 OFFSET 0 0 0
	 CHANNELS 3 XPosition YPosition Z Position
	 EndSite
	 {
	 OFFSET 0 -1 0
	 }
}
MOTION
Frames: 13
Frame Time: 0.002
-1.9091300666332245E-4	-0.004721221923828125	0		0.54716748046875	-2.5013349609375	0		-1.170595947265625	-0.100935546875	0		-0.5457991333007812	-2.565591552734375	0		2.274113525390625	-1.479546875	0		3.499255126953125	-0.5139920654296875	0		4.6886357421875	0.09901322937011718	0		5.907427734375	0.5224586791992187	0		-0.3019819641113281	5.86688623046875	0		
0.009730990409851075	0.005354176044464112	0		0.5269627075195312	-2.490881591796875	0		-1.1686375732421874	-0.08769137573242188	0		-0.54614453125	-2.5653515625	0		2.315671630859375	-1.49102099609375	0		3.502232666015625	-0.49800384521484375	0		4.70331884765625	0.09077944946289063	0		5.903798828125	0.5379754638671875	0		-0.30189019775390624	5.86711328125	0		
-0.010473930358886718	0.0058379840850830075	0		0.5714345703125	-2.506303466796875	0		-1.1879283447265625	-0.09316710662841797	0		-0.5674932861328125	-2.56682861328125	0		2.31030224609375	-1.4978450927734375	0		3.498541259765625	-0.531906494140625	0		4.72001953125	0.08354791259765625	0		5.9107841796875	0.537639404296875	0		-0.31796527099609373	5.85755810546875	0		
-8.084499835968018E-4	-0.0040861058235168455	0		0.5431552124023438	-2.5047333984375	0		-1.201978271484375	-0.08171990966796874	0		-0.5161641235351563	-2.5943017578125	0		2.336866455078125	-1.5110914306640626	0		3.5181982421875	-0.5411043701171875	0		4.73552392578125	0.06135799789428711	0		5.896390625	0.5398012084960937	0		-0.33206854248046874	5.84797314453125	0		
-0.005032584190368652	-0.006824391841888428	0		0.566818115234375	-2.5098720703125	0		-1.166222412109375	-0.08596480560302734	0		-0.5554436645507812	-2.594544921875	0		2.341482177734375	-1.522029541015625	0		3.557747314453125	-0.5595592651367187	0		4.74614990234375	0.0472585563659668	0		5.90113623046875	0.5188934936523437	0		-0.3320578002929688	5.84819091796875	0		
-0.011017775535583496	0.006456944942474365	0		0.5354512939453125	-2.519261962890625	0		-1.2023302001953124	-0.08123983764648438	0		-0.5448030395507812	-2.60347900390625	0		2.388998291015625	-1.54254931640625	0		3.545788330078125	-0.5432943725585937	0		4.7629453125	0.044095409393310546	0		5.9117763671875	0.5289791870117188	0		-0.3301012878417969	5.845373046875	0		
0.02370488739013672	-0.003829973936080933	0		0.5871709594726563	-2.525794677734375	0		-1.202468994140625	-0.08102113342285157	0		-0.5490526123046875	-2.607219970703125	0		2.39596337890625	-1.532507568359375	0		3.5691845703125	-0.576507568359375	0		4.7936005859375	0.02875737190246582	0		5.91167919921875	0.5290806884765625	0		-0.3310804748535156	5.8475859375	0		
-0.0013967549800872803	-0.0033052809238433836	0		0.5590396118164063	-2.52423876953125	0		-1.1725634765625	-0.08023053741455079	0		-0.5193418579101563	-2.617439453125	0		2.395585693359375	-1.5503656005859374	0		3.59705419921875	-0.57777197265625	0		4.783498046875	0.028993476867675783	0		5.915259765625	0.5446659545898438	0		-0.296031494140625	5.85129248046875	0		
0.0106187744140625	0.002699486970901489	0		0.571954345703125	-2.523254150390625	0		-1.1926971435546876	-0.08477004241943359	0		-0.5604782104492188	-2.619698974609375	0		2.392459228515625	-1.5531842041015624	0		3.608746337890625	-0.5948106689453125	0		4.8142236328125	0.013678348541259766	0		5.91296533203125	0.525872314453125	0		-0.3651539306640625	5.842416015625	0		
-0.0014869379997253418	-0.0029774739742279054	0		0.5538003540039063	-2.530853271484375	0		-1.23863525390625	-0.07797039794921876	0		-0.5306512451171875	-2.628948486328125	0		2.416281982421875	-1.5633759765625	0		3.59166357421875	-0.5984494018554688	0		4.81399267578125	-0.0012033029794692993	0		5.90651025390625	0.5228121337890625	0		-0.3300773010253906	5.8460947265625	0		
0.02352941703796387	-0.003177495002746582	0		0.5657103881835938	-2.537876220703125	0		-1.2327000732421876	-0.0839029541015625	0		-0.5547244873046875	-2.634471435546875	0		2.416142333984375	-1.5742418212890625	0		3.66024658203125	-0.630267822265625	0		4.82888623046875	-0.010286354064941406	0		5.9065234375	0.5230150756835937	0		-0.32806021118164064	5.844212890625	0		
0.008729796409606933	0.007157529830932617	0		0.5927675170898438	-2.538118408203125	0		-1.2004490966796875	-0.07021406555175781	0		-0.5197095336914063	-2.637822509765625	0		2.44719970703125	-1.574540283203125	0		3.651611083984375	-0.6080189819335937	0		4.842029296875	-0.004339468002319336	0		5.91090625	0.5334684448242187	0		-0.29392926025390625	5.84887451171875	0		
-0.001306041955947876	-0.0025892319679260254	0		0.5799317016601563	-2.53382373046875	0		-1.2223048095703124	-0.06680040740966797	0		-0.5646932983398437	-2.644089599609375	0		2.444250244140625	-1.5783770751953126	0		3.653273193359375	-0.63991845703125	0		4.85293603515625	-0.01836107635498047	0		5.9031611328125	0.5391473388671875	0		-0.3298828125	5.84648388671875	0		
